<?xml version="1.0" encoding="UTF-8" standalone="no"?>
<svg width="256px" height="256px" viewBox="0 0 256 256" version="1.1" xmlns="http://www.w3.org/2000/svg" xmlns:xlink="http://www.w3.org/1999/xlink" xmlns:sketch="http://www.bohemiancoding.com/sketch/ns">
    <!-- Generator: Sketch 3.3.2 (12043) - http://www.bohemiancoding.com/sketch -->
    <title>1_256</title>
    <desc>Created with Sketch.</desc>
    <defs></defs>
    <g id="Page-1" stroke="none" stroke-width="1" fill="none" fill-rule="evenodd" sketch:type="MSPage">
        <g id="1_256" sketch:type="MSArtboardGroup" stroke="#26a599">
            <g id="patch" sketch:type="MSLayerGroup" transform="translate(4.000000, 12.000000)">
                <g id="patch1" transform="translate(0.000000, 96.635514)" sketch:type="MSShapeGroup">
                    <path d="M20.9922612,25.9708594 L20.9922612,25.9708594 C27.7309051,21.7303389 35.6985371,19.2738471 44.2221063,19.2738471 C52.7456754,19.2738471 60.7133074,21.7303389 67.4519513,25.9708594 L67.4519513,9.21755171 C67.4519513,4.24791788 65.3612005,0.182687299 62.8061982,0.182687299 L25.6380143,0.182687299 C23.083012,0.182687299 20.9922612,4.24791788 20.9922612,9.21755171 L20.9922612,25.9708594 C8.67894068,33.7194369 0.469109856,47.4247273 0.469109856,62.9839743 C0.469109856,87.0587896 20.1236792,106.694101 44.2221063,106.694101 C68.3205333,106.694101 87.9751026,87.0587896 87.9751026,62.9839743 C87.9751026,38.9096982 68.3205333,19.2738471 44.2221063,19.2738471 C35.698535,19.2738471 27.7309012,21.7303401 20.9922563,25.9708626 Z M20.9922612,99.9972199 L20.9922612,113.736259 C20.9922612,118.705892 23.083012,122.771662 25.6380143,122.771662 L62.8061982,122.771662 C65.3612005,122.771662 67.4519513,118.705892 67.4519513,113.736259 L67.4519513,99.9972199 C60.7133074,104.237677 52.7456754,106.694101 44.2221063,106.694101 C35.6985371,106.694101 27.7309051,104.237677 20.9922612,99.9972199 L20.9922612,99.9972199 Z" id="Stroke-1" stroke-width="8.504"></path>
                    <path d="M44.2221063,93.8129615 C61.2185664,93.8129615 75.0813294,79.9643205 75.0813294,62.9839743 C75.0813294,46.0041673 61.2185664,32.154987 44.2221063,32.154987 C27.2256461,32.154987 13.3628831,46.0041673 13.3628831,62.9839743 C13.3628831,79.9643205 27.2256461,93.8129615 44.2221063,93.8129615 L44.2221063,93.8129615 Z" id="Stroke-7" stroke-width="4"></path>
                    <path d="M44.2221063,43.7067565 L44.2221063,82.2617313 M24.9259822,62.9839743 L63.5187702,62.9839743" id="Stroke-8" stroke-width="6"></path>
                </g>
                <g id="patch2" transform="translate(114.881981, 0.000000)" sketch:type="MSShapeGroup" stroke-linecap="round" stroke-linejoin="round">
                    <path d="M59.4719414,21.588785 L78.1487914,21.588785" id="Stroke-1" stroke-width="8"></path>
                    <path d="M45.2193308,21.588785 L45.2193308,21.588785" id="tchk" stroke-width="8"></path>
                    <path d="M110.115392,216.915888 L22.7711338,216.915888 C10.3224048,216.915888 0.136512757,206.904669 0.136512757,194.665662 L0.136512757,22.2502259 C0.136512757,10.0112189 10.3224048,0 22.7711338,0 L110.115392,0 C122.564121,0 132.746888,10.0112189 132.746888,22.2502259 L132.746888,194.665662 C132.746888,206.904669 122.564121,216.915888 110.115392,216.915888 L110.115392,216.915888 Z" id="Stroke-2" stroke-width="8"></path>
                    <path d="M115.671826,169.191092 L18.2941531,169.191092 C16.7756726,169.191092 15.5307072,167.981838 15.5307072,166.506915 L15.5307072,40.2864836 C15.5307072,38.8115606 16.7756726,37.6023069 18.2941531,37.6023069 L115.671826,37.6023069 C117.190306,37.6023069 118.435271,38.8115606 118.435271,40.2864836 L118.435271,166.506915 C118.435271,167.981838 117.190306,169.191092 115.671826,169.191092 L115.671826,169.191092 Z M78.4122928,190.621316 C78.4122928,184.604132 73.5232312,179.726446 67.4880975,179.726446 C61.4529637,179.726446 56.5639022,184.604132 56.5639022,190.621316 C56.5639022,196.635334 61.4529637,201.51302 67.4880975,201.51302 C73.5232312,201.51302 78.4122928,196.635334 78.4122928,190.621316 L78.4122928,190.621316 Z M92.0381707,91.1860772 L79.0535852,91.1860772 L79.0535852,78.2401107 L55.9226097,78.2401107 L55.9226097,91.1860772 L42.9380242,91.1860772 L42.9380242,114.248256 L55.9226097,114.248256 L55.9226097,127.194223 L79.0535852,127.194223 L79.0535852,114.248256 L92.0381707,114.248256 L92.0381707,91.1860772 L92.0381707,91.1860772 Z" id="Stroke-3" stroke-width="6"></path>
                    <path d="M92.0381707,91.1860772 L79.0535852,91.1860772 L79.0535852,78.2401107 L55.9226097,78.2401107 L55.9226097,91.1860772 L42.9380242,91.1860772 L42.9380242,114.248256 L55.9226097,114.248256 L55.9226097,127.194223 L79.0535852,127.194223 L79.0535852,114.248256 L92.0381707,114.248256 L92.0381707,91.1860772 L92.0381707,91.1860772 Z" id="Path-Copy" stroke-width="6"></path>
                </g>
            </g>
        </g>
    </g>
</svg>