<?xml version="1.0" encoding="UTF-8" standalone="no"?>
<svg width="256px" height="256px" viewBox="0 0 256 256" version="1.1" xmlns="http://www.w3.org/2000/svg" xmlns:xlink="http://www.w3.org/1999/xlink" xmlns:sketch="http://www.bohemiancoding.com/sketch/ns">
    <!-- Generator: Sketch 3.3.2 (12043) - http://www.bohemiancoding.com/sketch -->
    <title>2_256</title>
    <desc>Created with Sketch.</desc>
    <defs></defs>
    <g id="Page-1" stroke="none" stroke-width="1" fill="none" fill-rule="evenodd" sketch:type="MSPage">
        <g id="2_256" sketch:type="MSArtboardGroup" fill="#26a599">
            <path d="M125.445308,23.980692 C121.581945,23.980692 118.470372,27.015694 118.470372,30.9556277 C118.470372,34.7772242 121.581945,37.9375244 125.445308,37.9375244 C129.30171,37.9375244 132.427205,34.7772242 132.427205,30.9556277 C132.427205,27.015694 129.30171,23.980692 125.445308,23.980692 L125.445308,23.980692 Z M172.494799,30.621499 C172.494799,22.7346706 166.515288,16.6577057 159.150536,16.6577057 L152.314821,16.6577057 C147.407306,6.87052047 137.20246,0 125.445308,0 C113.681195,0 103.497232,6.87052047 98.5827563,16.6577057 L91.760963,16.6577057 C84.3753275,16.6577057 78.4097388,22.7346706 78.4097388,30.0576569 L47.37754,30.621499 C40.0197485,30.621499 34.0263158,36.5801267 34.0263158,44.0144893 L34.0263158,242.459066 C34.0263158,249.886468 40.0197485,255.845096 47.37754,255.845096 L203.520037,255.845096 C210.89175,255.845096 216.871261,249.886468 216.871261,242.459066 L216.871261,44.0144893 C216.871261,36.5801267 210.89175,30.621499 203.520037,30.621499 L172.494799,30.621499 Z M91.760963,30.0576569 L108.794563,30.0576569 C108.794563,20.8273528 116.242848,13.3929903 125.445308,13.3929903 C134.654729,13.3929903 142.103014,20.8273528 142.103014,30.0576569 L159.150536,30.0576569 L159.150536,50.5439201 L91.760963,50.5439201 L91.760963,30.0576569 L91.760963,30.0576569 Z M67.9403743,44.0144893 L78.4097388,44.0144893 L78.4097388,50.5439201 C78.4097388,57.8599454 84.3753275,63.8185731 91.760963,63.8185731 L159.150536,63.8185731 C166.515288,63.8185731 172.494799,57.8599454 172.494799,50.5439201 L172.494799,44.0144893 L182.964164,44.0144893 L182.964164,216.348304 L67.9403743,216.348304 L67.9403743,44.0144893 L67.9403743,44.0144893 Z M203.520037,242.459066 L47.37754,242.459066 L47.37754,44.0144893 L59.9282476,44.0144893 L59.9282476,216.348304 C59.9282476,220.733743 63.5201306,224.339548 67.9403743,224.339548 L182.964164,224.339548 C187.391368,224.339548 190.969329,220.733743 190.969329,216.348304 L190.969329,44.0144893 L203.520037,44.0144893 L203.520037,242.459066 L203.520037,242.459066 Z M134.780027,197.09414 L116.103628,197.09414 C113.896986,197.09414 112.108006,198.897043 112.108006,201.034074 C112.108006,203.289442 113.896986,205.078423 116.103628,205.078423 L134.780027,205.078423 C137.000591,205.078423 138.789571,203.289442 138.789571,201.034074 C138.789571,198.897043 137.000591,197.09414 134.780027,197.09414 L134.780027,197.09414 Z M145.131055,179.872593 C145.131055,177.624185 143.335113,175.932659 141.128472,175.932659 L109.762144,175.932659 C107.555503,175.932659 105.766522,177.624185 105.766522,179.872593 C105.766522,182.127961 107.555503,183.923903 109.762144,183.923903 L141.128472,183.923903 C143.335113,183.923903 145.131055,182.127961 145.131055,179.872593 L145.131055,179.872593 Z M114.843684,164.33561 L136.046932,164.33561 C138.253573,164.33561 140.056476,162.539669 140.056476,160.2843 C140.056476,158.147269 138.253573,156.344366 136.046932,156.344366 L114.843684,156.344366 C112.637043,156.344366 110.841101,158.147269 110.841101,160.2843 C110.841101,162.539669 112.637043,164.33561 114.843684,164.33561 L114.843684,164.33561 Z M92.4222593,144.747318 L158.461396,144.747318 C160.681959,144.747318 162.47094,142.958337 162.47094,140.814345 C162.47094,138.565938 160.681959,136.763035 158.461396,136.763035 L92.4222593,136.763035 C90.2156179,136.763035 88.4266374,138.565938 88.4266374,140.814345 C88.4266374,142.958337 90.2156179,144.747318 92.4222593,144.747318 L92.4222593,144.747318 Z M117.293961,125.284324 L133.589694,125.284324 C135.810257,125.284324 137.599238,123.481421 137.599238,121.226053 C137.599238,118.977645 135.810257,117.286119 133.589694,117.286119 L117.293961,117.286119 C115.08732,117.286119 113.298339,118.977645 113.298339,121.226053 C113.298339,123.481421 115.08732,125.284324 117.293961,125.284324 L117.293961,125.284324 Z M105.383667,105.696031 L145.51391,105.696031 C147.713591,105.696031 149.509532,103.893129 149.509532,101.756097 C149.509532,99.500729 147.713591,97.7047875 145.51391,97.7047875 L105.383667,97.7047875 C103.177025,97.7047875 101.388045,99.500729 101.388045,101.756097 C101.388045,103.893129 103.177025,105.696031 105.383667,105.696031 L105.383667,105.696031 Z M114.843684,86.1077388 L136.046932,86.1077388 C138.253573,86.1077388 140.056476,84.4231735 140.056476,82.1678051 C140.056476,79.9193977 138.253573,78.1164951 136.046932,78.1164951 L114.843684,78.1164951 C112.637043,78.1164951 110.841101,79.9193977 110.841101,82.1678051 C110.841101,84.4231735 112.637043,86.1077388 114.843684,86.1077388 L114.843684,86.1077388 Z M116.110589,201.034074 L134.786988,201.034074 L116.110589,201.034074 L116.110589,201.034074 Z M123.524068,201.034074 L127.373509,201.034074 L123.524068,201.034074 L123.524068,201.034074 Z M109.769105,179.872593 L141.128472,179.872593 L109.769105,179.872593 L109.769105,179.872593 Z M122.646981,179.872593 L128.250596,179.872593 L122.646981,179.872593 L122.646981,179.872593 Z M114.850645,160.2843 L136.053893,160.2843 L114.850645,160.2843 L114.850645,160.2843 Z M122.646981,160.2843 L128.250596,160.2843 L122.646981,160.2843 L122.646981,160.2843 Z M92.4292203,140.814345 L158.468357,140.814345 L92.4292203,140.814345 L92.4292203,140.814345 Z M122.646981,140.814345 L128.250596,140.814345 L122.646981,140.814345 L122.646981,140.814345 Z M117.300922,121.226053 L133.596655,121.226053 L117.300922,121.226053 L117.300922,121.226053 Z M122.646981,121.226053 L128.250596,121.226053 L122.646981,121.226053 L122.646981,121.226053 Z M105.383667,101.756097 L145.51391,101.756097 L105.383667,101.756097 L105.383667,101.756097 Z M122.646981,101.756097 L128.250596,101.756097 L122.646981,101.756097 L122.646981,101.756097 Z M114.850645,82.1678051 L136.053893,82.1678051 L114.850645,82.1678051 L114.850645,82.1678051 Z M122.646981,82.1678051 L128.250596,82.1678051 L122.646981,82.1678051 L122.646981,82.1678051 Z" id="patch" sketch:type="MSShapeGroup"></path>
        </g>
    </g>
</svg>