<?xml version="1.0" encoding="UTF-8" standalone="no"?>
<svg width="256px" height="256px" viewBox="0 0 256 256" version="1.1" xmlns="http://www.w3.org/2000/svg" xmlns:xlink="http://www.w3.org/1999/xlink" xmlns:sketch="http://www.bohemiancoding.com/sketch/ns">
    <!-- Generator: Sketch 3.3.2 (12043) - http://www.bohemiancoding.com/sketch -->
    <title>3_256</title>
    <desc>Created with Sketch.</desc>
    <defs></defs>
    <g id="Page-1" stroke="none" stroke-width="1" fill="none" fill-rule="evenodd" sketch:type="MSPage">
        <g id="3_256" sketch:type="MSArtboardGroup" stroke-linecap="round" stroke="#26a599" stroke-linejoin="round">
            <g id="patch" sketch:type="MSLayerGroup" transform="translate(4.000000, 40.000000)">
                <path d="M123.267307,133.271732 C113.707976,124.038382 99.3503969,110.846411 86.6135685,101.870516 L67.3152812,119.709026 L48.2812691,102.115612 C27.7813552,117.276596 0.536228423,144.062167 0.536228423,144.062167 C16.1160804,163.719336 40.2353264,176.334609 67.3090872,176.334609 C89.0890844,176.334609 108.957215,168.168151 124.006452,154.741381" id="Stroke-1" stroke-width="8" sketch:type="MSShapeGroup"></path>
                <path d="M48.2812691,102.115612 C48.2812691,102.115612 9.35435031,152.683804 15.2138282,158.529052 M86.8633912,102.115612 C86.8633912,102.115612 105.414275,126.213358 114.975671,143.061183 M67.3152812,119.709026 L67.3152812,176.334609" id="Stroke-2" stroke-width="4" sketch:type="MSShapeGroup"></path>
                <path d="M93.243161,27.2251745 L93.243161,67.1759411 C93.243161,81.4018495 81.5758215,93.0429142 67.3152812,93.0429142 C53.0547408,93.0429142 41.3853367,81.4018495 41.3853367,67.1759411 L41.3853367,27.2251745 C58.1709445,21.3510916 76.4596178,21.3510916 93.243161,27.2251745 L93.243161,27.2251745 Z" id="Stroke-3" stroke-width="8" sketch:type="MSShapeGroup"></path>
                <path d="M41.3853367,51.6195076 L93.243161,51.6195076 L41.3853367,51.6195076 Z M67.3152812,32.8994727 L67.3152812,43.1111498 L67.3152812,32.8994727 Z M72.4335495,38.0053113 L62.1970128,38.0053113 L72.4335495,38.0053113 Z M53.9858981,152.784727 L80.6425995,152.784727 L80.6425995,139.100503 L53.9858981,139.100503 L53.9858981,152.784727 Z" id="Stroke-4" stroke-width="4" sketch:type="MSShapeGroup"></path>
                <path d="M200.014492,101.884933 L180.716205,119.721384 L161.682193,102.13003 C141.182279,117.291013 113.937152,144.076584 113.937152,144.076584 C129.519069,163.733753 153.638315,176.346967 180.710011,176.346967 C207.789966,176.346967 231.915406,163.725515 247.495257,144.058047 C247.495257,144.058047 221.457951,116.996485 200.014492,101.884933 L200.014492,101.884933 Z" id="Stroke-5" stroke-width="8" sketch:type="MSShapeGroup"></path>
                <path d="M180.455285,119.721384 L180.455285,176.346967" id="Stroke-6" stroke-width="4" sketch:type="MSShapeGroup"></path>
                <path d="M206.646149,54.4618058 L206.646149,67.1903585 C206.646149,81.4162669 194.976745,93.055272 180.716205,93.055272 C166.455664,93.055272 154.788325,81.4162669 154.788325,67.1903585 L154.788325,27.239592 C163.179064,24.3025505 170.946279,22.8340298 179.714849,22.8340298" id="Stroke-7" stroke-width="8" sketch:type="MSShapeGroup"></path>
                <path d="M154.788325,51.2897727 L194.541104,51.2897727" id="Stroke-8" stroke-width="4" sketch:type="MSShapeGroup"></path>
                <path d="M233.934634,27.239592 C233.934634,12.2042465 221.716033,0.0173781818 206.646149,0.0173781818 C191.574201,0.0173781818 179.3556,12.2042465 179.3556,27.239592 C179.3556,42.2749375 191.574201,54.4618058 206.646149,54.4618058 C221.716033,54.4618058 233.934634,42.2749375 233.934634,27.239592 L233.934634,27.239592 Z" id="Stroke-9" stroke-width="8" sketch:type="MSShapeGroup"></path>
                <path d="M214.61157,27.239592 C214.61157,22.8505069 211.043855,19.2935149 206.646149,19.2935149 C202.246379,19.2935149 198.678663,22.8505069 198.678663,27.239592 C198.678663,31.6286771 202.246379,35.1856691 206.646149,35.1856691 C211.043855,35.1856691 214.61157,31.6286771 214.61157,27.239592 L214.61157,27.239592 Z M215.672801,133.271732 L215.672801,143.230073 C215.672801,148.951743 210.97985,153.635356 205.242187,153.635356 C199.506588,153.635356 194.813638,148.951743 194.813638,143.230073 L194.813638,133.271732 L215.672801,133.271732 L215.672801,133.271732 Z" id="Stroke-10" stroke-width="4" sketch:type="MSShapeGroup"></path>
            </g>
        </g>
    </g>
</svg>