<?xml version="1.0" encoding="UTF-8" standalone="no"?>
<svg width="256px" height="256px" viewBox="0 0 256 256" version="1.1" xmlns="http://www.w3.org/2000/svg" xmlns:xlink="http://www.w3.org/1999/xlink" xmlns:sketch="http://www.bohemiancoding.com/sketch/ns">
    <!-- Generator: Sketch 3.3.2 (12043) - http://www.bohemiancoding.com/sketch -->
    <title>6_256</title>
    <desc>Created with Sketch.</desc>
    <defs></defs>
    <g id="Page-1" stroke="none" stroke-width="1" fill="none" fill-rule="evenodd" sketch:type="MSPage">
        <g id="6_256" sketch:type="MSArtboardGroup">
            <g id="Imported-Layers" sketch:type="MSLayerGroup" transform="translate(5.000000, 35.000000)">
                <path d="M7.37178986,153.477655 L50.5449419,86.6632623 L117.688042,50.8207132 L188.257506,61.2097698 L238.610269,7.28509811" id="Stroke-1" stroke="#26a599" stroke-width="8" sketch:type="MSShapeGroup"></path>
                <path d="M7.37178986,153.477655 L237.144304,152.184794 L238.610269,7.28509811" id="Stroke-2" stroke="#26a599" stroke-width="12" sketch:type="MSShapeGroup"></path>
                <path d="M185.095048,59.2916141 L185.18019,154.537088 L190.991212,154.531878 L190.906069,59.2864047 L185.095048,59.2916141 M47.639871,86.7139483 L48.7978042,153.269526 L54.6079461,153.168154 L53.4500128,86.6125762 L47.639871,86.7139483 Z M114.782577,50.8371424 L115.357894,152.870133 L121.168825,152.837275 L120.593508,50.804284 L114.782577,50.8371424 Z" id="Stroke-3" stroke="#26a599" stroke-width="4" sketch:type="MSShapeGroup"></path>
                <path d="M188.257506,68.4733 C192.262227,68.4733 195.528341,65.2104679 195.528341,61.2097698 C195.528341,57.2090717 192.262227,53.9462396 188.257506,53.9462396 C184.252784,53.9462396 180.98667,57.2090717 180.98667,61.2097698 C180.98667,65.2104679 184.252784,68.4733 188.257506,68.4733 L188.257506,68.4733 Z" id="Fill-4" fill="#FFFFFF" sketch:type="MSShapeGroup"></path>
                <path d="M188.257506,68.4733 C192.262227,68.4733 195.528341,65.2104679 195.528341,61.2097698 C195.528341,57.2090717 192.262227,53.9462396 188.257506,53.9462396 C184.252784,53.9462396 180.98667,57.2090717 180.98667,61.2097698 C180.98667,65.2104679 184.252784,68.4733 188.257506,68.4733 L188.257506,68.4733 Z" id="Stroke-5" stroke="#26a599" stroke-width="8" sketch:type="MSShapeGroup"></path>
                <path d="M238.610269,14.5489321 C242.614991,14.5489321 245.881105,11.2854925 245.881105,7.28479434 C245.881105,3.28409623 242.614991,0.0212641509 238.610269,0.0212641509 C234.605548,0.0212641509 231.339434,3.28409623 231.339434,7.28479434 C231.339434,11.2854925 234.605548,14.5489321 238.610269,14.5489321 L238.610269,14.5489321 Z" id="Fill-6" fill="#FFFFFF" sketch:type="MSShapeGroup"></path>
                <path d="M238.610269,14.5489321 C242.614991,14.5489321 245.881105,11.2854925 245.881105,7.28479434 C245.881105,3.28409623 242.614991,0.0212641509 238.610269,0.0212641509 C234.605548,0.0212641509 231.339434,3.28409623 231.339434,7.28479434 C231.339434,11.2854925 234.605548,14.5489321 238.610269,14.5489321 L238.610269,14.5489321 Z" id="Stroke-7" stroke="#26a599" stroke-width="8" sketch:type="MSShapeGroup"></path>
                <path d="M7.37178986,160.741185 C11.3765117,160.741185 14.6426255,157.478353 14.6426255,153.477655 C14.6426255,149.476957 11.3765117,146.214125 7.37178986,146.214125 C3.36706799,146.214125 0.100954265,149.476957 0.100954265,153.477655 C0.100954265,157.478353 3.36706799,160.741185 7.37178986,160.741185 L7.37178986,160.741185 Z" id="Fill-8" fill="#FFFFFF" sketch:type="MSShapeGroup"></path>
                <path d="M7.37178986,160.741185 C11.3765117,160.741185 14.6426255,157.478353 14.6426255,153.477655 C14.6426255,149.476957 11.3765117,146.214125 7.37178986,146.214125 C3.36706799,146.214125 0.100954265,149.476957 0.100954265,153.477655 C0.100954265,157.478353 3.36706799,160.741185 7.37178986,160.741185 L7.37178986,160.741185 Z" id="Stroke-9" stroke="#26a599" stroke-width="8" sketch:type="MSShapeGroup"></path>
                <path d="M50.5449419,93.9267925 C54.5496638,93.9267925 57.8160816,90.6636566 57.8160816,86.6629585 C57.8160816,82.6622604 54.5496638,79.3994283 50.5449419,79.3994283 C46.5405241,79.3994283 43.2741063,82.6622604 43.2741063,86.6629585 C43.2741063,90.6636566 46.5405241,93.9267925 50.5449419,93.9267925 L50.5449419,93.9267925 Z" id="Fill-10" fill="#FFFFFF" sketch:type="MSShapeGroup"></path>
                <path d="M50.5449419,93.9267925 C54.5496638,93.9267925 57.8160816,90.6636566 57.8160816,86.6629585 C57.8160816,82.6622604 54.5496638,79.3994283 50.5449419,79.3994283 C46.5405241,79.3994283 43.2741063,82.6622604 43.2741063,86.6629585 C43.2741063,90.6636566 46.5405241,93.9267925 50.5449419,93.9267925 L50.5449419,93.9267925 Z" id="Stroke-11" stroke="#26a599" stroke-width="8" sketch:type="MSShapeGroup"></path>
                <path d="M124.958878,51.7905927 C124.958878,47.7898946 121.692764,44.5270625 117.688042,44.5270625 C113.68332,44.5270625 110.417206,47.7898946 110.417206,51.7905927 C110.417206,55.7909871 113.68332,59.0541229 117.688042,59.0541229 C121.692764,59.0541229 124.958878,55.7909871 124.958878,51.7905927 Z" id="Fill-13" fill="#FFFFFF" sketch:type="MSShapeGroup"></path>
                <path d="M117.688042,58.0842434 C121.692764,58.0842434 124.958878,54.8211075 124.958878,50.8207132 C124.958878,46.8200151 121.692764,43.557183 117.688042,43.557183 C113.68332,43.557183 110.417206,46.8200151 110.417206,50.8207132 C110.417206,54.8211075 113.68332,58.0842434 117.688042,58.0842434 L117.688042,58.0842434 Z" id="Stroke-14" stroke="#26a599" stroke-width="8" sketch:type="MSShapeGroup"></path>
            </g>
        </g>
    </g>
</svg>