<?xml version="1.0" encoding="UTF-8" standalone="no"?>
<svg width="256px" height="256px" viewBox="0 0 256 256" version="1.1" xmlns="http://www.w3.org/2000/svg" xmlns:xlink="http://www.w3.org/1999/xlink" xmlns:sketch="http://www.bohemiancoding.com/sketch/ns">
    <!-- Generator: Sketch 3.3.2 (12043) - http://www.bohemiancoding.com/sketch -->
    <title>4_256</title>
    <desc>Created with Sketch.</desc>
    <defs></defs>
    <g id="Page-1" stroke="none" stroke-width="1" fill="none" fill-rule="evenodd" sketch:type="MSPage">
        <g id="4_256" sketch:type="MSArtboardGroup" stroke-linecap="round" stroke="#909fa1" stroke-linejoin="round">
            <g id="patch" sketch:type="MSLayerGroup" transform="translate(17.280137, 5.000000)">
                <path d="M78.0633965,225.361253 C87.3660137,238.028354 98.4929791,245.39353 110.449477,245.39353 C143.091279,245.39353 169.555244,190.476707 169.555244,122.736477 C169.555244,92.7755937 164.378461,65.3249978 155.780635,44.0235103 M140.752371,17.4044664 C131.892587,6.4004694 121.526546,0.076297245 110.449477,0.076297245 C77.8045574,0.076297245 51.3437105,54.9931199 51.3437105,122.736477 C51.3437105,152.669224 56.5111381,180.101063 65.0933715,201.393172 M179.964944,202.437302 C197.004669,201.146208 210.065132,195.090883 216.414488,184.065003 C232.736948,155.726585 198.526519,105.295766 140.000801,71.4240882 C114.120004,56.4436468 87.8182026,47.2121686 65.1183199,44.0266365 M39.1034248,43.1919583 C22.9587218,44.7675306 10.60305,50.7790892 4.48134791,61.40795 C-11.841112,89.7463684 22.3724356,140.177187 80.8950346,174.048865 C106.775832,189.02618 133.074515,198.257658 155.774398,201.446317 M8.61030033,139.727023 C-0.330565677,156.486236 -2.34826373,172.207571 4.48134791,184.065003 C20.8038079,212.403422 81.4782023,207.917417 140.000801,174.048865 C165.884718,159.068424 187.012854,140.849306 201.114911,122.73335 M214.521532,101.263052 C221.519545,86.1982046 222.632865,72.1993698 216.414488,61.40795 C200.095147,33.0664054 139.420752,37.5524098 80.8950346,71.4240882 C55.0173554,86.4014034 33.8923375,104.617395 19.7871625,122.730224" id="Stroke-1" stroke-width="10" sketch:type="MSShapeGroup"></path>
                <path d="M128.075489,122.736477 C128.075489,112.976681 120.185572,105.064432 110.449477,105.064432 C100.713383,105.064432 92.8203473,112.976681 92.8203473,122.736477 C92.8203473,132.496272 100.713383,140.405394 110.449477,140.405394 C120.185572,140.405394 128.075489,132.496272 128.075489,122.736477 L128.075489,122.736477 Z" id="Path" stroke-width="8" sketch:type="MSShapeGroup"></path>
            </g>
        </g>
    </g>
</svg>